# xmcd CD database file
#
# Track frame offsets:
#	150
#	56078
#	130939
#	182675
#	248132
#
# Disc length: 4080 seconds
#
# Revision: 0
# Processed by: cddbd v1.5.2PL0 Copyright (c) Steve Scherf et al.
# Submitted via: CDex 1.51
#
DISCID=410fee05
DTITLE=Joe Diorio and Joe Giglio - Rainbow Shards
DYEAR=2009
DGENRE=Jazz
TTITLE0=Wine and Roses
TTITLE1=Body and Soul
TTITLE2=You or No. 1
TTITLE3=Black Orpheus
TTITLE4=O.O.N.
EXTD=YEAR: 2009
EXTT0=
EXTT1=
EXTT2=
EXTT3=
EXTT4=
PLAYORDER=
